<?xml version="1.0" encoding="utf-8"?>
<!-- Generator: Adobe Illustrator 17.0.0, SVG Export Plug-In . SVG Version: 6.00 Build 0)  -->
<!DOCTYPE svg PUBLIC "-//W3C//DTD SVG 1.1//EN" "http://www.w3.org/Graphics/SVG/1.1/DTD/svg11.dtd">
<svg version="1.1" id="Layer_1" xmlns="http://www.w3.org/2000/svg" xmlns:xlink="http://www.w3.org/1999/xlink" x="0px" y="0px"
	 width="24px" height="24px" viewBox="0 0 24 24" enable-background="new 0 0 24 24" xml:space="preserve">
<g>
	<path fill="#FF6C00" d="M4.704,12C2.105,12,0,14.11,0,16.709s2.105,4.709,4.704,4.709c2.604,0,4.714-2.11,4.714-4.709
		S7.308,12,4.704,12z M4.709,20.476c-2.081,0-3.767-1.686-3.767-3.767s1.686-3.767,3.767-3.767s3.767,1.686,3.767,3.767
		S6.79,20.476,4.709,20.476z M6.357,16.238c0.391,0,0.706-0.316,0.706-0.706s-0.316-0.706-0.706-0.706
		c-0.391,0-0.706,0.316-0.706,0.706S5.966,16.238,6.357,16.238z M3.061,16.238c0.391,0,0.706-0.316,0.706-0.706
		s-0.316-0.706-0.706-0.706s-0.706,0.316-0.706,0.706S2.67,16.238,3.061,16.238z"/>
	<rect x="2.669" y="17.886" fill="#FF6C00" width="4.081" height="0.883"/>
</g>
<path fill="#D31B1B" d="M19.255,12c-2.599,0-4.704,2.11-4.704,4.709s2.105,4.709,4.704,4.709c2.604,0,4.714-2.11,4.714-4.709
	S21.859,12,19.255,12z M19.26,20.476c-2.081,0-3.767-1.686-3.767-3.767s1.686-3.767,3.767-3.767s3.767,1.686,3.767,3.767
	S21.341,20.476,19.26,20.476z M20.908,16.238c0.391,0,0.706-0.316,0.706-0.706s-0.316-0.706-0.706-0.706
	c-0.391,0-0.706,0.316-0.706,0.706S20.517,16.238,20.908,16.238z M17.612,16.238c0.391,0,0.706-0.316,0.706-0.706
	s-0.316-0.706-0.706-0.706c-0.391,0-0.706,0.316-0.706,0.706S17.221,16.238,17.612,16.238z M19.26,17.651
	c1.097,0,2.03,0.688,2.406,1.648h-4.813C17.231,18.338,18.163,17.651,19.26,17.651z"/>
<path fill="#378B36" d="M12.048,2.582c-2.599,0-4.704,2.11-4.704,4.709S9.449,12,12.048,12c2.604,0,4.714-2.11,4.714-4.709
	S14.652,2.582,12.048,2.582z M12.053,11.058c-2.081,0-3.767-1.686-3.767-3.767s1.686-3.767,3.767-3.767S15.82,5.21,15.82,7.291
	S14.134,11.058,12.053,11.058z M13.701,6.82c0.391,0,0.706-0.316,0.706-0.706c0-0.391-0.316-0.706-0.706-0.706
	s-0.706,0.316-0.706,0.706C12.995,6.505,13.31,6.82,13.701,6.82z M10.405,6.82c0.391,0,0.706-0.316,0.706-0.706
	c0-0.391-0.316-0.706-0.706-0.706S9.699,5.723,9.699,6.114C9.699,6.505,10.014,6.82,10.405,6.82z M12.053,9.881
	c1.097,0,2.03-0.688,2.406-1.648H9.647C10.023,9.193,10.956,9.881,12.053,9.881z"/>
</svg>
