<?xml version="1.0" encoding="utf-8"?>
<!-- Generator: Adobe Illustrator 17.0.0, SVG Export Plug-In . SVG Version: 6.00 Build 0)  -->
<!DOCTYPE svg PUBLIC "-//W3C//DTD SVG 1.1//EN" "http://www.w3.org/Graphics/SVG/1.1/DTD/svg11.dtd">
<svg version="1.1" id="Layer_1" xmlns="http://www.w3.org/2000/svg" xmlns:xlink="http://www.w3.org/1999/xlink" x="0px" y="0px"
	 width="24px" height="24px" viewBox="0 0 24 24" enable-background="new 0 0 24 24" xml:space="preserve">
<path fill="none" d="M0,0h24v24H0V0z"/>
<path fill="#FF6C00" d="M11.99,2C6.47,2,2,6.48,2,12s4.47,10,9.99,10C17.52,22,22,17.52,22,12S17.52,2,11.99,2z M12,20c-4.42,0-8-3.58-8-8
	s3.58-8,8-8s8,3.58,8,8S16.42,20,12,20z M15.5,11c0.83,0,1.5-0.67,1.5-1.5S16.33,8,15.5,8S14,8.67,14,9.5S14.67,11,15.5,11z M8.5,11
	c0.83,0,1.5-0.67,1.5-1.5S9.33,8,8.5,8S7,8.67,7,9.5S7.67,11,8.5,11z"/>
<rect fill="#FF6C00" x="7.667" y="14.5" width="8.667" height="1.875"/>
</svg>
